#Comment line ignore any data following # character 
#Hierarchical Translation and Rotation (.htr) file 
[Header]	
#Header keywords are followed by a single value 
FileType HTR		#Single word string
DataType HTRS		#Translation followed by rotation and scale data
FileVersion 1		#integer
NumSegments 84		#integer
NumFrames 2		#integer
DataFrameRate 30		#integer, data frame rate in this file
EulerRotationOrder ZYX
CalibrationUnits mm
RotationUnits Degrees
GlobalAxisofGravity Y
BoneLengthAxis Y
ScaleFactor 1.00
[SegmentNames&Hierarchy]
#CHILD	PARENT
MASTER GLOBAL
root MASTER
chest root
L_mid_tent01 root
R_mid_tent01 root
spine01 root
Bip01_Neck chest
L_humerus chest
R_humerus chest
weapon_bone chest
Bip01_Head Bip01_Neck
eye_left_bone Bip01_Head
eye_right_bone Bip01_Head
L_forearm L_humerus
L_front_hand L_forearm
L_weapon_bone L_forearm
L_front_hand01_01 L_front_hand
L_front_hand02_01 L_front_hand
L_front_hand03_01 L_front_hand
L_front_hand01_02 L_front_hand01_01
L_front_hand02_02 L_front_hand02_01
L_front_hand03_02 L_front_hand03_01
R_forearm R_humerus
R_front_hand R_forearm
R_weapon_bone R_forearm
R_front_hand01_01 R_front_hand
R_front_hand02_01 R_front_hand
R_front_hand03_01 R_front_hand
R_front_hand01_02 R_front_hand01_01
R_front_hand02_02 R_front_hand02_01
R_front_hand03_02 R_front_hand03_01
null_rope01_connect L_mid_tent01
Rope1_Seg01 null_rope01_connect
Rope1_Seg02 Rope1_Seg01
Rope1_Seg03 Rope1_Seg02
Rope1_Seg04 Rope1_Seg03
Rope1_Seg05 Rope1_Seg04
Rope1_Seg06 Rope1_Seg05
Rope1_Seg07 Rope1_Seg06
Rope1_Seg09 Rope1_Seg07
L_mid_hand01 Rope1_Seg09
L_mid_hand02 Rope1_Seg09
L_mid_hand03 Rope1_Seg09
null_rope02_connect R_mid_tent01
Rope2_Seg01 null_rope02_connect
Rope2_Seg02 Rope2_Seg01
Rope2_Seg03 Rope2_Seg02
Rope2_Seg04 Rope2_Seg03
Rope2_Seg05 Rope2_Seg04
Rope2_Seg06 Rope2_Seg05
Rope2_Seg07 Rope2_Seg06
Rope2_Seg09 Rope2_Seg07
R_mid_hand01 Rope2_Seg09
R_mid_hand02 Rope2_Seg09
R_mid_hand03 Rope2_Seg09
spine02 spine01
spine03 spine02
pelvis spine03
null_rope03_connect pelvis
null_rope04_connect pelvis
Rope3_Seg01 null_rope03_connect
Rope3_Seg02 Rope3_Seg01
Rope3_Seg03 Rope3_Seg02
Rope3_Seg04 Rope3_Seg03
Rope3_Seg05 Rope3_Seg04
Rope3_Seg06 Rope3_Seg05
Rope3_Seg07 Rope3_Seg06
Rope3_Seg08 Rope3_Seg07
Rope3_Seg09 Rope3_Seg08
R_rear_hand01 Rope3_Seg09
R_rear_hand02 Rope3_Seg09
R_rear_hand03 Rope3_Seg09
Rope4_Seg01 null_rope04_connect
Rope4_Seg02 Rope4_Seg01
Rope4_Seg03 Rope4_Seg02
Rope4_Seg04 Rope4_Seg03
Rope4_Seg05 Rope4_Seg04
Rope4_Seg06 Rope4_Seg05
Rope4_Seg07 Rope4_Seg06
Rope4_Seg08 Rope4_Seg07
Rope4_Seg09 Rope4_Seg08
L_rear_hand01 Rope4_Seg09
L_rear_hand02 Rope4_Seg09
L_rear_hand03 Rope4_Seg09
[BasePosition]
#SegmentName Tx, Ty, Tz, Rx, Ry, Rz, BoneLength
MASTER 0.000000 0.000000 0.000000 -90.000000 0.000000 0.000000 10.000000 
root 0.000000 0.000000 0.000000 0.000000 0.000000 0.000000 10.000000 
chest 0.000000 0.000000 0.000000 0.000000 0.000000 0.000000 10.000000 
L_mid_tent01 0.000000 0.000000 0.000000 0.000000 0.000000 0.000000 10.000000 
R_mid_tent01 0.000000 0.000000 0.000000 0.000000 0.000000 0.000000 10.000000 
spine01 0.000000 0.000000 0.000000 0.000000 0.000000 0.000000 10.000000 
Bip01_Neck 0.000000 0.000000 0.000000 0.000000 0.000000 0.000000 10.000000 
L_humerus 0.000000 0.000000 0.000000 0.000000 0.000000 0.000000 10.000000 
R_humerus 0.000000 0.000000 0.000000 0.000000 0.000000 0.000000 10.000000 
weapon_bone 0.000000 0.000000 0.000000 0.000000 0.000000 0.000000 10.000000 
Bip01_Head 0.000000 0.000000 0.000000 0.000000 0.000000 0.000000 10.000000 
eye_left_bone 0.000000 0.000000 0.000000 0.000000 0.000000 0.000000 10.000000 
eye_right_bone 0.000000 0.000000 0.000000 0.000000 0.000000 0.000000 10.000000 
L_forearm 0.000000 0.000000 0.000000 0.000000 0.000000 0.000000 10.000000 
L_front_hand 0.000000 0.000000 0.000000 0.000000 0.000000 0.000000 10.000000 
L_weapon_bone 0.000000 0.000000 0.000000 0.000000 0.000000 0.000000 10.000000 
L_front_hand01_01 0.000000 0.000000 0.000000 0.000000 0.000000 0.000000 10.000000 
L_front_hand02_01 0.000000 0.000000 0.000000 0.000000 0.000000 0.000000 10.000000 
L_front_hand03_01 0.000000 0.000000 0.000000 0.000000 0.000000 0.000000 10.000000 
L_front_hand01_02 0.000000 0.000000 0.000000 0.000000 0.000000 0.000000 10.000000 
L_front_hand02_02 0.000000 0.000000 0.000000 0.000000 0.000000 0.000000 10.000000 
L_front_hand03_02 0.000000 0.000000 0.000000 0.000000 0.000000 0.000000 10.000000 
R_forearm 0.000000 0.000000 0.000000 0.000000 0.000000 0.000000 10.000000 
R_front_hand 0.000000 0.000000 0.000000 0.000000 0.000000 0.000000 10.000000 
R_weapon_bone 0.000000 0.000000 0.000000 0.000000 0.000000 0.000000 10.000000 
R_front_hand01_01 0.000000 0.000000 0.000000 0.000000 0.000000 0.000000 10.000000 
R_front_hand02_01 0.000000 0.000000 0.000000 0.000000 0.000000 0.000000 10.000000 
R_front_hand03_01 0.000000 0.000000 0.000000 0.000000 0.000000 0.000000 10.000000 
R_front_hand01_02 0.000000 0.000000 0.000000 0.000000 0.000000 0.000000 10.000000 
R_front_hand02_02 0.000000 0.000000 0.000000 0.000000 0.000000 0.000000 10.000000 
R_front_hand03_02 0.000000 0.000000 0.000000 0.000000 0.000000 0.000000 10.000000 
null_rope01_connect 0.000000 0.000000 0.000000 0.000000 0.000000 0.000000 10.000000 
Rope1_Seg01 0.000000 0.000000 0.000000 0.000000 0.000000 0.000000 10.000000 
Rope1_Seg02 0.000000 0.000000 0.000000 0.000000 0.000000 0.000000 10.000000 
Rope1_Seg03 0.000000 0.000000 0.000000 0.000000 0.000000 0.000000 10.000000 
Rope1_Seg04 0.000000 0.000000 0.000000 0.000000 0.000000 0.000000 10.000000 
Rope1_Seg05 0.000000 0.000000 0.000000 0.000000 0.000000 0.000000 10.000000 
Rope1_Seg06 0.000000 0.000000 0.000000 0.000000 0.000000 0.000000 10.000000 
Rope1_Seg07 0.000000 0.000000 0.000000 0.000000 0.000000 0.000000 10.000000 
Rope1_Seg09 0.000000 0.000000 0.000000 0.000000 0.000000 0.000000 10.000000 
L_mid_hand01 0.000000 0.000000 0.000000 0.000000 0.000000 0.000000 10.000000 
L_mid_hand02 0.000000 0.000000 0.000000 0.000000 0.000000 0.000000 10.000000 
L_mid_hand03 0.000000 0.000000 0.000000 0.000000 0.000000 0.000000 10.000000 
null_rope02_connect 0.000000 0.000000 0.000000 0.000000 0.000000 0.000000 10.000000 
Rope2_Seg01 0.000000 0.000000 0.000000 0.000000 0.000000 0.000000 10.000000 
Rope2_Seg02 0.000000 0.000000 0.000000 0.000000 0.000000 0.000000 10.000000 
Rope2_Seg03 0.000000 0.000000 0.000000 0.000000 0.000000 0.000000 10.000000 
Rope2_Seg04 0.000000 0.000000 0.000000 0.000000 0.000000 0.000000 10.000000 
Rope2_Seg05 0.000000 0.000000 0.000000 0.000000 0.000000 0.000000 10.000000 
Rope2_Seg06 0.000000 0.000000 0.000000 0.000000 0.000000 0.000000 10.000000 
Rope2_Seg07 0.000000 0.000000 0.000000 0.000000 0.000000 0.000000 10.000000 
Rope2_Seg09 0.000000 0.000000 0.000000 0.000000 0.000000 0.000000 10.000000 
R_mid_hand01 0.000000 0.000000 0.000000 0.000000 0.000000 0.000000 10.000000 
R_mid_hand02 0.000000 0.000000 0.000000 0.000000 0.000000 0.000000 10.000000 
R_mid_hand03 0.000000 0.000000 0.000000 0.000000 0.000000 0.000000 10.000000 
spine02 0.000000 0.000000 0.000000 0.000000 0.000000 0.000000 10.000000 
spine03 0.000000 0.000000 0.000000 0.000000 0.000000 0.000000 10.000000 
pelvis 0.000000 0.000000 0.000000 0.000000 0.000000 0.000000 10.000000 
null_rope03_connect 0.000000 0.000000 0.000000 0.000000 0.000000 0.000000 10.000000 
null_rope04_connect 0.000000 0.000000 0.000000 0.000000 0.000000 0.000000 10.000000 
Rope3_Seg01 0.000000 0.000000 0.000000 0.000000 0.000000 0.000000 10.000000 
Rope3_Seg02 0.000000 0.000000 0.000000 0.000000 0.000000 0.000000 10.000000 
Rope3_Seg03 0.000000 0.000000 0.000000 0.000000 0.000000 0.000000 10.000000 
Rope3_Seg04 0.000000 0.000000 0.000000 0.000000 0.000000 0.000000 10.000000 
Rope3_Seg05 0.000000 0.000000 0.000000 0.000000 0.000000 0.000000 10.000000 
Rope3_Seg06 0.000000 0.000000 0.000000 0.000000 0.000000 0.000000 10.000000 
Rope3_Seg07 0.000000 0.000000 0.000000 0.000000 0.000000 0.000000 10.000000 
Rope3_Seg08 0.000000 0.000000 0.000000 0.000000 0.000000 0.000000 10.000000 
Rope3_Seg09 0.000000 0.000000 0.000000 0.000000 0.000000 0.000000 10.000000 
R_rear_hand01 0.000000 0.000000 0.000000 0.000000 0.000000 0.000000 10.000000 
R_rear_hand02 0.000000 0.000000 0.000000 0.000000 0.000000 0.000000 10.000000 
R_rear_hand03 0.000000 0.000000 0.000000 0.000000 0.000000 0.000000 10.000000 
Rope4_Seg01 0.000000 0.000000 0.000000 0.000000 0.000000 0.000000 10.000000 
Rope4_Seg02 0.000000 0.000000 0.000000 0.000000 0.000000 0.000000 10.000000 
Rope4_Seg03 0.000000 0.000000 0.000000 0.000000 0.000000 0.000000 10.000000 
Rope4_Seg04 0.000000 0.000000 0.000000 0.000000 0.000000 0.000000 10.000000 
Rope4_Seg05 0.000000 0.000000 0.000000 0.000000 0.000000 0.000000 10.000000 
Rope4_Seg06 0.000000 0.000000 0.000000 0.000000 0.000000 0.000000 10.000000 
Rope4_Seg07 0.000000 0.000000 0.000000 0.000000 0.000000 0.000000 10.000000 
Rope4_Seg08 0.000000 0.000000 0.000000 0.000000 0.000000 0.000000 10.000000 
Rope4_Seg09 0.000000 0.000000 0.000000 0.000000 0.000000 0.000000 10.000000 
L_rear_hand01 0.000000 0.000000 0.000000 0.000000 0.000000 0.000000 10.000000 
L_rear_hand02 0.000000 0.000000 0.000000 0.000000 0.000000 0.000000 10.000000 
L_rear_hand03 0.000000 0.000000 0.000000 0.000000 0.000000 0.000000 10.000000 
#Beginning of Data. Separated by tabs
#Fr	Tx	Ty	Tz	Rx	Ry	Rz	SF
[MASTER]
3 0.000000 0.000000 0.000000 0.001660 0.001660 0.001660 0.000000
4 0.000000 0.000000 0.000000 0.001660 0.001660 0.001660 0.000000
[root]
3 -24.576847 -80.784729 1564.111694 -91.687378 -26.957216 -70.211189 1566.389282
4 -17.507793 -96.414322 1629.360840 -94.603233 -27.029465 -65.197990 1632.304810
[chest]
3 -84.512650 -34.090519 0.000000 -2.535797 3.147564 -177.240372 91.129311
4 -84.512650 -34.090519 0.000000 -2.546819 3.487217 -178.203384 91.129311
[L_mid_tent01]
3 27.300484 22.175940 -249.918777 -0.558245 34.128441 75.432610 252.381622
4 27.300444 22.176035 -249.918777 -3.997427 38.272221 71.162300 252.381638
[R_mid_tent01]
3 23.228794 24.509907 226.238495 154.273590 -50.794453 92.894363 228.744751
4 23.228794 24.509907 226.238495 151.881592 -55.791561 96.326660 228.744751
[spine01]
3 -0.361383 -0.195265 0.000000 0.001945 0.001314 21.900755 0.410763
4 -0.361383 -0.195265 0.000000 0.001944 0.001316 21.825209 0.410763
[Bip01_Neck]
3 165.484543 71.581718 0.000119 175.896118 1.177290 24.871183 180.302734
4 165.484543 71.581718 0.000119 175.896118 1.177290 24.871185 180.302734
[L_humerus]
3 -13.983130 -135.272980 -120.471481 157.213821 31.126545 -136.787994 181.680161
4 -13.983130 -135.272980 -120.471481 153.932831 36.675377 -135.584305 181.680161
[R_humerus]
3 -13.983309 -135.273102 125.287651 -171.634186 -33.607258 -113.431107 184.909012
4 -13.983309 -135.273102 125.287651 -177.057022 -40.103790 -99.344131 184.909012
[weapon_bone]
3 235.964890 -300.705902 0.000000 0.000000 -89.951546 -128.212341 382.234833
4 235.964890 -300.705902 0.000000 0.000000 -89.951546 -128.212341 382.234833
[Bip01_Head]
3 209.300339 143.438416 8.168111 -2.206432 1.354962 -61.906532 253.865982
4 210.653534 141.662140 7.961502 -7.239493 1.226443 -60.767990 253.981201
[eye_left_bone]
3 31.668242 155.855682 -74.809731 -157.135147 -88.856361 57.995853 175.756561
4 32.441860 156.321976 -74.961441 -155.864716 -88.769966 56.729183 176.375305
[eye_right_bone]
3 33.073933 157.792908 54.258015 22.914476 -88.861168 57.949032 170.107086
4 34.028622 158.268280 54.099236 24.186171 -88.774590 56.681000 170.685440
[L_forearm]
3 322.776093 0.000000 -0.000119 0.000364 -0.002319 -107.830688 322.776093
4 322.776093 0.000000 -0.000119 0.000352 -0.002321 -107.242081 322.776093
[L_front_hand]
3 241.149185 -0.042021 -3.300071 -178.701553 -1.861518 -26.389656 241.171753
4 241.149185 -0.042021 -3.300071 -178.720261 -1.875594 -25.764994 241.171753
[L_weapon_bone]
3 156.183838 0.000000 0.000000 0.001625 0.001694 -2.382329 156.183838
4 156.183838 0.000000 0.000000 0.001583 0.001733 -5.153489 156.183838
[L_front_hand01_01]
3 86.095154 20.947098 -0.655860 -0.365735 -0.477812 75.179466 88.609184
4 86.095154 20.947098 -0.655860 -0.364720 -0.478588 74.936234 88.609184
[L_front_hand02_01]
3 86.935165 -11.437475 24.513514 154.083481 -59.794327 -61.001266 91.046425
4 86.935165 -11.437475 24.513514 153.708527 -59.690228 -60.568150 91.046425
[L_front_hand03_01]
3 86.637497 -14.123976 -20.424902 -153.626984 58.028236 -62.364826 90.126129
4 86.637497 -14.123976 -20.424902 -153.279221 57.922546 -61.955151 90.126129
[L_front_hand01_02]
3 71.020905 -0.000179 0.000030 0.000334 -0.002323 -106.379684 71.020905
4 71.020905 -0.000179 0.000030 0.000334 -0.002323 -106.379684 71.020905
[L_front_hand02_02]
3 71.020927 -0.000119 0.000060 0.000334 -0.002323 -106.379684 71.020927
4 71.020927 -0.000119 0.000060 0.000334 -0.002323 -106.379684 71.020927
[L_front_hand03_02]
3 71.020905 -0.000060 0.000060 0.000334 -0.002323 -106.379684 71.020905
4 71.020905 -0.000060 0.000060 0.000334 -0.002323 -106.379684 71.020905
[R_forearm]
3 322.776428 -0.000060 0.000030 0.212529 0.020147 -96.458763 322.776428
4 322.776428 -0.000060 0.000030 0.209784 -0.006393 -89.045929 322.776428
[R_front_hand]
3 238.847015 -0.006795 2.210259 -2.635298 -10.645462 -26.312506 238.857239
4 238.847015 -0.006795 2.210259 -2.635298 -10.645462 -26.312506 238.857239
[R_weapon_bone]
3 155.664093 0.002503 -0.000030 0.003487 0.001180 -90.988930 155.664078
4 155.664093 0.002503 -0.000030 0.003487 0.001180 -90.988930 155.664078
[R_front_hand01_01]
3 87.624611 14.231146 22.918642 -147.452881 -57.531628 53.347282 91.683487
4 87.624611 14.231146 22.918642 -141.816315 -54.851692 46.568089 91.683487
[R_front_hand02_01]
3 89.356956 14.367283 -19.491137 147.849472 55.901863 55.706532 92.579636
4 89.356956 14.367283 -19.491137 142.510132 53.259499 49.159668 92.579636
[R_front_hand03_01]
3 87.286232 -22.307278 -0.143439 0.124644 -0.437237 -70.793335 90.091743
4 87.286232 -22.307278 -0.143439 0.088425 -0.445506 -66.170067 90.091743
[R_front_hand01_02]
3 71.020905 0.000060 0.000119 0.002339 -0.000193 99.435295 71.020905
4 71.020905 0.000060 0.000119 0.002340 -0.000183 98.965759 71.020905
[R_front_hand02_02]
3 71.020844 -0.000030 -0.000119 0.002339 -0.000193 99.431007 71.020836
4 71.020844 -0.000030 -0.000119 0.002340 -0.000183 98.962547 71.020836
[R_front_hand03_02]
3 71.020905 0.000000 0.000030 0.002339 -0.000193 99.435295 71.020905
4 71.020905 0.000000 0.000030 0.002340 -0.000183 98.965759 71.020905
[null_rope01_connect]
3 328.732483 0.000000 -0.000238 -170.028687 -62.945534 -143.723892 328.732483
4 328.732483 0.000000 -0.000238 -171.843399 -57.320442 -135.956833 328.732483
[Rope1_Seg01]
3 -0.000038 -0.000114 0.000096 88.500351 -12.163118 -151.932724 0.000154
4 -0.000038 -0.000114 0.000097 83.345261 -17.577591 -149.392181 0.000155
[Rope1_Seg02]
3 139.999863 -0.000179 0.000000 8.880798 -6.630076 -6.732831 139.999863
4 139.999863 -0.000179 0.000000 7.555039 -5.878884 -6.543853 139.999863
[Rope1_Seg03]
3 139.999924 0.000060 -0.000060 17.312624 -15.265924 -11.798484 139.999924
4 139.999924 0.000060 -0.000060 16.641867 -14.382175 -12.756195 139.999924
[Rope1_Seg04]
3 139.999924 -0.000060 -0.000119 24.481995 -34.486866 -17.527721 139.999924
4 139.999924 -0.000060 -0.000119 28.683912 -37.668240 -22.802908 139.999924
[Rope1_Seg05]
3 139.999832 0.000119 -0.000060 2.684363 -23.941090 1.561560 139.999832
4 139.999832 0.000119 -0.000060 3.090618 -23.791344 -0.841645 139.999832
[Rope1_Seg06]
3 139.999954 0.000119 -0.000060 -0.285345 -6.316258 3.673507 139.999954
4 139.999954 0.000119 -0.000060 -0.094620 -4.915185 1.089836 139.999954
[Rope1_Seg07]
3 139.999985 0.000060 0.000000 -0.426383 -4.916255 1.321914 139.999985
4 139.999985 0.000060 0.000000 -0.225386 -4.138289 0.257251 139.999985
[Rope1_Seg09]
3 121.602913 0.000119 -0.000089 -89.442039 -1.358747 0.846759 121.602913
4 121.602913 0.000119 -0.000089 -89.776657 -1.359759 0.847219 121.602913
[L_mid_hand01]
3 103.859421 1.038730 8.195221 106.042580 -26.207779 -7.767942 104.187431
4 103.859421 1.038730 8.195221 105.417549 -21.185928 -6.225375 104.187431
[L_mid_hand02]
3 105.572853 -4.139662 -10.864139 -140.493759 22.478060 -24.283102 106.211075
4 105.572853 -4.139662 -10.864139 -138.980621 19.105467 -20.026217 106.211075
[L_mid_hand03]
3 104.641464 17.579376 -3.913581 -16.918470 8.243919 29.133947 106.179977
4 104.641464 17.579376 -3.913581 -17.573988 6.692881 24.105686 106.179977
[null_rope02_connect]
3 328.732849 0.000179 -0.000119 -118.110039 19.123482 31.913639 328.732849
4 328.732849 0.000179 -0.000119 -119.343582 12.719343 34.564754 328.732849
[Rope2_Seg01]
3 -0.000066 0.000099 0.000000 -47.035473 2.081815 43.325176 0.000119
4 -0.000061 0.000099 0.000000 -47.227009 6.003995 45.165909 0.000116
[Rope2_Seg02]
3 139.999741 -0.000060 -0.000119 -0.243484 -0.220149 17.994276 139.999756
4 139.999741 -0.000060 -0.000119 -0.095025 -1.371231 18.802868 139.999756
[Rope2_Seg03]
3 140.000107 0.000030 0.000000 2.772019 1.562371 21.861399 140.000107
4 140.000107 0.000030 0.000000 2.908458 -0.064282 20.004412 140.000107
[Rope2_Seg04]
3 139.999802 0.000000 -0.000060 5.136592 0.020987 21.445084 139.999802
4 139.999802 0.000000 -0.000060 5.678617 -1.277676 20.696856 139.999802
[Rope2_Seg05]
3 139.999985 -0.000060 0.000119 9.923908 -5.082808 26.486565 139.999985
4 139.999985 -0.000060 0.000119 11.694835 -3.008764 25.911869 139.999985
[Rope2_Seg06]
3 139.999893 -0.000030 -0.000119 9.454449 0.145005 14.583301 139.999893
4 139.999893 -0.000030 -0.000119 9.088686 1.497853 13.293276 139.999893
[Rope2_Seg07]
3 139.999893 0.000060 -0.000060 5.404490 1.457751 6.977168 139.999893
4 139.999893 0.000060 -0.000060 5.036404 1.900785 6.535064 139.999893
[Rope2_Seg09]
3 121.338966 0.000089 -0.000060 33.793236 -1.359788 -0.847141 121.338966
4 121.338966 0.000089 -0.000060 33.793236 -1.359788 -0.847141 121.338966
[R_mid_hand01]
3 104.680779 11.144459 -10.335981 -43.389069 21.487944 23.909441 105.778534
4 104.680779 11.144459 -10.335981 -44.968380 17.106186 19.135353 105.778534
[R_mid_hand02]
3 104.070427 2.443552 8.231699 73.809685 -27.165421 8.087244 104.424065
4 104.070427 2.443552 8.231699 74.578720 -21.119291 6.210459 104.424065
[R_mid_hand03]
3 106.028137 -11.221827 -5.996406 -166.934555 8.989377 -31.243221 106.788818
4 106.028137 -11.221827 -5.996406 -166.046585 7.519541 -25.068808 106.788818
[spine02]
3 129.756927 0.001550 0.000119 0.401934 -4.040430 -13.544234 129.756927
4 129.756927 0.001550 0.000119 0.420219 -4.038394 -13.784113 129.756927
[spine03]
3 78.615051 0.079750 -4.899069 1.971444 3.791487 17.615770 78.767593
4 78.615028 0.079799 -4.899067 2.006966 3.774744 18.122618 78.767570
[pelvis]
3 169.435242 0.051022 0.000000 -0.061014 -0.180040 14.436824 169.435257
4 169.435242 0.051022 0.000000 -0.061229 -0.179967 14.573940 169.435257
[null_rope03_connect]
3 -1.257226 -2.466202 137.391083 91.187096 -70.584953 -14.551143 137.418976
4 -1.257226 -2.466202 137.391083 97.534317 -66.716377 -20.574690 137.418976
[null_rope04_connect]
3 -1.259640 -2.480268 -137.844437 91.187096 -70.584953 -14.551143 137.872513
4 -1.259640 -2.480268 -137.844437 97.534317 -66.716377 -20.574690 137.872513
[Rope3_Seg01]
3 0.000000 0.000000 0.000000 -130.191544 -32.246429 -83.274124 0.000000
4 0.000000 0.000000 0.000000 -132.767776 -19.048098 -73.339409 0.000000
[Rope3_Seg02]
3 139.999924 -0.000119 0.000060 5.195734 -18.776535 -33.988712 139.999924
4 139.999924 -0.000119 0.000060 11.406363 -24.997972 -37.992783 139.999924
[Rope3_Seg03]
3 139.999924 -0.000119 0.000119 11.205674 -16.509598 -18.439184 139.999924
4 139.999924 -0.000119 0.000119 22.165215 -16.779171 -16.417776 139.999924
[Rope3_Seg04]
3 139.999924 0.000119 0.000000 -15.612430 -7.493767 -15.474540 139.999924
4 139.999924 0.000119 0.000000 143.574707 -16.836758 -15.688133 139.999924
[Rope3_Seg05]
3 139.999924 -0.000238 0.000060 -132.129379 2.352156 -30.159103 139.999924
4 139.999924 -0.000238 0.000060 22.185474 2.218601 29.333204 139.999924
[Rope3_Seg06]
3 139.999893 -0.000119 -0.000060 -2.329729 13.211480 13.800111 139.999893
4 139.999893 -0.000119 -0.000060 2.138871 5.765467 11.086741 139.999893
[Rope3_Seg07]
3 139.999771 0.000060 -0.000119 -0.304476 5.886039 6.387628 139.999771
4 139.999771 0.000060 -0.000119 0.982369 3.222033 5.627505 139.999771
[Rope3_Seg08]
3 139.999985 -0.000060 0.000000 0.192652 3.088731 3.411226 139.999985
4 139.999985 -0.000060 0.000000 0.723254 1.817926 3.065430 139.999985
[Rope3_Seg09]
3 90.185997 -0.000179 -0.000060 86.565742 -1.361918 -0.845561 90.185997
4 90.185997 -0.000179 -0.000060 84.858803 -1.361324 -0.846773 90.185997
[R_rear_hand01]
3 103.366196 -6.073594 -10.757982 -160.005554 14.750708 -24.383490 104.101845
4 103.366196 -6.073594 -10.757982 -158.724411 12.779007 -19.005732 104.101845
[R_rear_hand02]
3 100.509819 12.039542 -7.992327 -35.793762 15.947124 23.882643 101.543350
4 100.509819 12.039542 -7.992327 -36.941399 12.636292 19.237955 101.543350
[R_rear_hand03]
3 101.539970 5.215704 5.435467 83.712227 -25.154428 6.543104 101.819031
4 101.539970 5.215704 5.435467 83.961388 -19.601210 5.895136 101.819031
[Rope4_Seg01]
3 0.000000 0.000000 0.000000 46.552559 -20.539509 -99.085625 0.000000
4 0.000000 0.000000 0.000000 44.822781 -22.668732 -94.247444 0.000000
[Rope4_Seg02]
3 139.999985 0.000060 0.000119 0.829732 -13.212153 -7.398387 139.999985
4 139.999985 0.000060 0.000119 0.606865 -10.958160 -6.354745 139.999985
[Rope4_Seg03]
3 139.999924 0.000000 -0.000238 1.636909 -19.743280 -11.360600 139.999924
4 139.999924 0.000000 -0.000238 1.310329 -17.862476 -10.632581 139.999924
[Rope4_Seg04]
3 139.999985 0.000000 0.000119 0.619241 -17.609482 -10.091350 139.999985
4 139.999985 0.000000 0.000119 0.364135 -19.931232 -12.535139 139.999985
[Rope4_Seg05]
3 139.999802 -0.000060 -0.000119 -2.811937 -14.272958 -8.534767 139.999802
4 139.999802 -0.000060 -0.000119 -3.205606 -15.354215 -9.703773 139.999802
[Rope4_Seg06]
3 139.999924 0.000000 0.000060 -162.448257 -21.924578 -16.049301 139.999924
4 139.999924 0.000000 0.000060 -157.312790 -21.183214 -15.404280 139.999924
[Rope4_Seg07]
3 139.999802 0.000000 0.000000 -2.255959 21.883757 8.426450 139.999802
4 139.999802 0.000000 0.000000 -6.931602 23.144022 6.415304 139.999802
[Rope4_Seg08]
3 139.999924 0.000000 0.000119 -1.589570 9.730513 4.354997 139.999924
4 139.999924 0.000000 0.000119 -1.795765 10.126751 4.387318 139.999924
[Rope4_Seg09]
3 90.185791 0.000060 0.000060 -137.861115 2.230682 0.850653 90.185791
4 90.185791 0.000060 0.000060 -139.199234 2.230118 0.852359 90.185791
[L_rear_hand01]
3 101.696655 -8.392275 -7.654577 -36.065723 -15.249181 157.123398 102.329041
4 101.696655 -8.392275 -7.654577 -37.242527 -11.574301 162.196594 102.329041
[L_rear_hand02]
3 102.726799 -1.568258 5.773216 83.777115 23.970695 173.600632 102.900848
4 102.726799 -1.568258 5.773216 84.022964 17.852329 174.296112 102.900848
[L_rear_hand03]
3 104.552910 9.721220 -10.420293 -159.714264 -14.341211 -156.771698 105.519653
4 104.552910 9.721220 -10.420293 -158.362930 -12.135302 -162.671356 105.519653
